%TF.GenerationSoftware,KiCad,Pcbnew,8.0.4*%
%TF.CreationDate,2024-08-20T01:52:54-04:00*%
%TF.ProjectId,EISA Bridge,45495341-2042-4726-9964-67652e6b6963,1*%
%TF.SameCoordinates,Original*%
%TF.FileFunction,Legend,Top*%
%TF.FilePolarity,Positive*%
%FSLAX46Y46*%
G04 Gerber Fmt 4.6, Leading zero omitted, Abs format (unit mm)*
G04 Created by KiCad (PCBNEW 8.0.4) date 2024-08-20 01:52:54*
%MOMM*%
%LPD*%
G01*
G04 APERTURE LIST*
%ADD10C,0.153000*%
G04 APERTURE END LIST*
D10*
X126739523Y-97729424D02*
X126691904Y-97777044D01*
X126691904Y-97777044D02*
X126549047Y-97824663D01*
X126549047Y-97824663D02*
X126453809Y-97824663D01*
X126453809Y-97824663D02*
X126310952Y-97777044D01*
X126310952Y-97777044D02*
X126215714Y-97681805D01*
X126215714Y-97681805D02*
X126168095Y-97586567D01*
X126168095Y-97586567D02*
X126120476Y-97396091D01*
X126120476Y-97396091D02*
X126120476Y-97253234D01*
X126120476Y-97253234D02*
X126168095Y-97062758D01*
X126168095Y-97062758D02*
X126215714Y-96967520D01*
X126215714Y-96967520D02*
X126310952Y-96872282D01*
X126310952Y-96872282D02*
X126453809Y-96824663D01*
X126453809Y-96824663D02*
X126549047Y-96824663D01*
X126549047Y-96824663D02*
X126691904Y-96872282D01*
X126691904Y-96872282D02*
X126739523Y-96919901D01*
X127168095Y-97824663D02*
X127168095Y-96824663D01*
X127168095Y-96824663D02*
X127739523Y-97824663D01*
X127739523Y-97824663D02*
X127739523Y-96824663D01*
X128120476Y-96824663D02*
X128739523Y-96824663D01*
X128739523Y-96824663D02*
X128406190Y-97205615D01*
X128406190Y-97205615D02*
X128549047Y-97205615D01*
X128549047Y-97205615D02*
X128644285Y-97253234D01*
X128644285Y-97253234D02*
X128691904Y-97300853D01*
X128691904Y-97300853D02*
X128739523Y-97396091D01*
X128739523Y-97396091D02*
X128739523Y-97634186D01*
X128739523Y-97634186D02*
X128691904Y-97729424D01*
X128691904Y-97729424D02*
X128644285Y-97777044D01*
X128644285Y-97777044D02*
X128549047Y-97824663D01*
X128549047Y-97824663D02*
X128263333Y-97824663D01*
X128263333Y-97824663D02*
X128168095Y-97777044D01*
X128168095Y-97777044D02*
X128120476Y-97729424D01*
X164220853Y-101850952D02*
X164268472Y-101708095D01*
X164268472Y-101708095D02*
X164316091Y-101660476D01*
X164316091Y-101660476D02*
X164411329Y-101612857D01*
X164411329Y-101612857D02*
X164554186Y-101612857D01*
X164554186Y-101612857D02*
X164649424Y-101660476D01*
X164649424Y-101660476D02*
X164697044Y-101708095D01*
X164697044Y-101708095D02*
X164744663Y-101803333D01*
X164744663Y-101803333D02*
X164744663Y-102184285D01*
X164744663Y-102184285D02*
X163744663Y-102184285D01*
X163744663Y-102184285D02*
X163744663Y-101850952D01*
X163744663Y-101850952D02*
X163792282Y-101755714D01*
X163792282Y-101755714D02*
X163839901Y-101708095D01*
X163839901Y-101708095D02*
X163935139Y-101660476D01*
X163935139Y-101660476D02*
X164030377Y-101660476D01*
X164030377Y-101660476D02*
X164125615Y-101708095D01*
X164125615Y-101708095D02*
X164173234Y-101755714D01*
X164173234Y-101755714D02*
X164220853Y-101850952D01*
X164220853Y-101850952D02*
X164220853Y-102184285D01*
X163744663Y-101279523D02*
X163744663Y-100660476D01*
X163744663Y-100660476D02*
X164125615Y-100993809D01*
X164125615Y-100993809D02*
X164125615Y-100850952D01*
X164125615Y-100850952D02*
X164173234Y-100755714D01*
X164173234Y-100755714D02*
X164220853Y-100708095D01*
X164220853Y-100708095D02*
X164316091Y-100660476D01*
X164316091Y-100660476D02*
X164554186Y-100660476D01*
X164554186Y-100660476D02*
X164649424Y-100708095D01*
X164649424Y-100708095D02*
X164697044Y-100755714D01*
X164697044Y-100755714D02*
X164744663Y-100850952D01*
X164744663Y-100850952D02*
X164744663Y-101136666D01*
X164744663Y-101136666D02*
X164697044Y-101231904D01*
X164697044Y-101231904D02*
X164649424Y-101279523D01*
X164744663Y-99708095D02*
X164744663Y-100279523D01*
X164744663Y-99993809D02*
X163744663Y-99993809D01*
X163744663Y-99993809D02*
X163887520Y-100089047D01*
X163887520Y-100089047D02*
X163982758Y-100184285D01*
X163982758Y-100184285D02*
X164030377Y-100279523D01*
X216834663Y-102158094D02*
X215834663Y-102158094D01*
X216310853Y-102158094D02*
X216310853Y-101586666D01*
X216834663Y-101586666D02*
X215834663Y-101586666D01*
X216834663Y-100586666D02*
X216834663Y-101158094D01*
X216834663Y-100872380D02*
X215834663Y-100872380D01*
X215834663Y-100872380D02*
X215977520Y-100967618D01*
X215977520Y-100967618D02*
X216072758Y-101062856D01*
X216072758Y-101062856D02*
X216120377Y-101158094D01*
X216834663Y-100110475D02*
X216834663Y-99919999D01*
X216834663Y-99919999D02*
X216787044Y-99824761D01*
X216787044Y-99824761D02*
X216739424Y-99777142D01*
X216739424Y-99777142D02*
X216596567Y-99681904D01*
X216596567Y-99681904D02*
X216406091Y-99634285D01*
X216406091Y-99634285D02*
X216025139Y-99634285D01*
X216025139Y-99634285D02*
X215929901Y-99681904D01*
X215929901Y-99681904D02*
X215882282Y-99729523D01*
X215882282Y-99729523D02*
X215834663Y-99824761D01*
X215834663Y-99824761D02*
X215834663Y-100015237D01*
X215834663Y-100015237D02*
X215882282Y-100110475D01*
X215882282Y-100110475D02*
X215929901Y-100158094D01*
X215929901Y-100158094D02*
X216025139Y-100205713D01*
X216025139Y-100205713D02*
X216263234Y-100205713D01*
X216263234Y-100205713D02*
X216358472Y-100158094D01*
X216358472Y-100158094D02*
X216406091Y-100110475D01*
X216406091Y-100110475D02*
X216453710Y-100015237D01*
X216453710Y-100015237D02*
X216453710Y-99824761D01*
X216453710Y-99824761D02*
X216406091Y-99729523D01*
X216406091Y-99729523D02*
X216358472Y-99681904D01*
X216358472Y-99681904D02*
X216263234Y-99634285D01*
X126739523Y-104859424D02*
X126691904Y-104907044D01*
X126691904Y-104907044D02*
X126549047Y-104954663D01*
X126549047Y-104954663D02*
X126453809Y-104954663D01*
X126453809Y-104954663D02*
X126310952Y-104907044D01*
X126310952Y-104907044D02*
X126215714Y-104811805D01*
X126215714Y-104811805D02*
X126168095Y-104716567D01*
X126168095Y-104716567D02*
X126120476Y-104526091D01*
X126120476Y-104526091D02*
X126120476Y-104383234D01*
X126120476Y-104383234D02*
X126168095Y-104192758D01*
X126168095Y-104192758D02*
X126215714Y-104097520D01*
X126215714Y-104097520D02*
X126310952Y-104002282D01*
X126310952Y-104002282D02*
X126453809Y-103954663D01*
X126453809Y-103954663D02*
X126549047Y-103954663D01*
X126549047Y-103954663D02*
X126691904Y-104002282D01*
X126691904Y-104002282D02*
X126739523Y-104049901D01*
X127168095Y-104954663D02*
X127168095Y-103954663D01*
X127168095Y-103954663D02*
X127739523Y-104954663D01*
X127739523Y-104954663D02*
X127739523Y-103954663D01*
X128739523Y-104954663D02*
X128168095Y-104954663D01*
X128453809Y-104954663D02*
X128453809Y-103954663D01*
X128453809Y-103954663D02*
X128358571Y-104097520D01*
X128358571Y-104097520D02*
X128263333Y-104192758D01*
X128263333Y-104192758D02*
X128168095Y-104240377D01*
X165460853Y-101749523D02*
X165460853Y-102082856D01*
X165984663Y-102082856D02*
X164984663Y-102082856D01*
X164984663Y-102082856D02*
X164984663Y-101606666D01*
X164984663Y-101320951D02*
X164984663Y-100701904D01*
X164984663Y-100701904D02*
X165365615Y-101035237D01*
X165365615Y-101035237D02*
X165365615Y-100892380D01*
X165365615Y-100892380D02*
X165413234Y-100797142D01*
X165413234Y-100797142D02*
X165460853Y-100749523D01*
X165460853Y-100749523D02*
X165556091Y-100701904D01*
X165556091Y-100701904D02*
X165794186Y-100701904D01*
X165794186Y-100701904D02*
X165889424Y-100749523D01*
X165889424Y-100749523D02*
X165937044Y-100797142D01*
X165937044Y-100797142D02*
X165984663Y-100892380D01*
X165984663Y-100892380D02*
X165984663Y-101178094D01*
X165984663Y-101178094D02*
X165937044Y-101273332D01*
X165937044Y-101273332D02*
X165889424Y-101320951D01*
X165984663Y-99749523D02*
X165984663Y-100320951D01*
X165984663Y-100035237D02*
X164984663Y-100035237D01*
X164984663Y-100035237D02*
X165127520Y-100130475D01*
X165127520Y-100130475D02*
X165222758Y-100225713D01*
X165222758Y-100225713D02*
X165270377Y-100320951D01*
X218054663Y-102114285D02*
X217054663Y-102114285D01*
X217054663Y-102114285D02*
X217054663Y-101876190D01*
X217054663Y-101876190D02*
X217102282Y-101733333D01*
X217102282Y-101733333D02*
X217197520Y-101638095D01*
X217197520Y-101638095D02*
X217292758Y-101590476D01*
X217292758Y-101590476D02*
X217483234Y-101542857D01*
X217483234Y-101542857D02*
X217626091Y-101542857D01*
X217626091Y-101542857D02*
X217816567Y-101590476D01*
X217816567Y-101590476D02*
X217911805Y-101638095D01*
X217911805Y-101638095D02*
X218007044Y-101733333D01*
X218007044Y-101733333D02*
X218054663Y-101876190D01*
X218054663Y-101876190D02*
X218054663Y-102114285D01*
X218054663Y-100590476D02*
X218054663Y-101161904D01*
X218054663Y-100876190D02*
X217054663Y-100876190D01*
X217054663Y-100876190D02*
X217197520Y-100971428D01*
X217197520Y-100971428D02*
X217292758Y-101066666D01*
X217292758Y-101066666D02*
X217340377Y-101161904D01*
X217483234Y-100019047D02*
X217435615Y-100114285D01*
X217435615Y-100114285D02*
X217387996Y-100161904D01*
X217387996Y-100161904D02*
X217292758Y-100209523D01*
X217292758Y-100209523D02*
X217245139Y-100209523D01*
X217245139Y-100209523D02*
X217149901Y-100161904D01*
X217149901Y-100161904D02*
X217102282Y-100114285D01*
X217102282Y-100114285D02*
X217054663Y-100019047D01*
X217054663Y-100019047D02*
X217054663Y-99828571D01*
X217054663Y-99828571D02*
X217102282Y-99733333D01*
X217102282Y-99733333D02*
X217149901Y-99685714D01*
X217149901Y-99685714D02*
X217245139Y-99638095D01*
X217245139Y-99638095D02*
X217292758Y-99638095D01*
X217292758Y-99638095D02*
X217387996Y-99685714D01*
X217387996Y-99685714D02*
X217435615Y-99733333D01*
X217435615Y-99733333D02*
X217483234Y-99828571D01*
X217483234Y-99828571D02*
X217483234Y-100019047D01*
X217483234Y-100019047D02*
X217530853Y-100114285D01*
X217530853Y-100114285D02*
X217578472Y-100161904D01*
X217578472Y-100161904D02*
X217673710Y-100209523D01*
X217673710Y-100209523D02*
X217864186Y-100209523D01*
X217864186Y-100209523D02*
X217959424Y-100161904D01*
X217959424Y-100161904D02*
X218007044Y-100114285D01*
X218007044Y-100114285D02*
X218054663Y-100019047D01*
X218054663Y-100019047D02*
X218054663Y-99828571D01*
X218054663Y-99828571D02*
X218007044Y-99733333D01*
X218007044Y-99733333D02*
X217959424Y-99685714D01*
X217959424Y-99685714D02*
X217864186Y-99638095D01*
X217864186Y-99638095D02*
X217673710Y-99638095D01*
X217673710Y-99638095D02*
X217578472Y-99685714D01*
X217578472Y-99685714D02*
X217530853Y-99733333D01*
X217530853Y-99733333D02*
X217483234Y-99828571D01*
X89270853Y-101223333D02*
X89270853Y-101556666D01*
X89794663Y-101556666D02*
X88794663Y-101556666D01*
X88794663Y-101556666D02*
X88794663Y-101080476D01*
X89794663Y-100175714D02*
X89794663Y-100747142D01*
X89794663Y-100461428D02*
X88794663Y-100461428D01*
X88794663Y-100461428D02*
X88937520Y-100556666D01*
X88937520Y-100556666D02*
X89032758Y-100651904D01*
X89032758Y-100651904D02*
X89080377Y-100747142D01*
X194019523Y-104829424D02*
X193971904Y-104877044D01*
X193971904Y-104877044D02*
X193829047Y-104924663D01*
X193829047Y-104924663D02*
X193733809Y-104924663D01*
X193733809Y-104924663D02*
X193590952Y-104877044D01*
X193590952Y-104877044D02*
X193495714Y-104781805D01*
X193495714Y-104781805D02*
X193448095Y-104686567D01*
X193448095Y-104686567D02*
X193400476Y-104496091D01*
X193400476Y-104496091D02*
X193400476Y-104353234D01*
X193400476Y-104353234D02*
X193448095Y-104162758D01*
X193448095Y-104162758D02*
X193495714Y-104067520D01*
X193495714Y-104067520D02*
X193590952Y-103972282D01*
X193590952Y-103972282D02*
X193733809Y-103924663D01*
X193733809Y-103924663D02*
X193829047Y-103924663D01*
X193829047Y-103924663D02*
X193971904Y-103972282D01*
X193971904Y-103972282D02*
X194019523Y-104019901D01*
X194448095Y-104924663D02*
X194448095Y-103924663D01*
X194448095Y-103924663D02*
X195019523Y-104924663D01*
X195019523Y-104924663D02*
X195019523Y-103924663D01*
X195448095Y-104019901D02*
X195495714Y-103972282D01*
X195495714Y-103972282D02*
X195590952Y-103924663D01*
X195590952Y-103924663D02*
X195829047Y-103924663D01*
X195829047Y-103924663D02*
X195924285Y-103972282D01*
X195924285Y-103972282D02*
X195971904Y-104019901D01*
X195971904Y-104019901D02*
X196019523Y-104115139D01*
X196019523Y-104115139D02*
X196019523Y-104210377D01*
X196019523Y-104210377D02*
X195971904Y-104353234D01*
X195971904Y-104353234D02*
X195400476Y-104924663D01*
X195400476Y-104924663D02*
X196019523Y-104924663D01*
X194039523Y-97749424D02*
X193991904Y-97797044D01*
X193991904Y-97797044D02*
X193849047Y-97844663D01*
X193849047Y-97844663D02*
X193753809Y-97844663D01*
X193753809Y-97844663D02*
X193610952Y-97797044D01*
X193610952Y-97797044D02*
X193515714Y-97701805D01*
X193515714Y-97701805D02*
X193468095Y-97606567D01*
X193468095Y-97606567D02*
X193420476Y-97416091D01*
X193420476Y-97416091D02*
X193420476Y-97273234D01*
X193420476Y-97273234D02*
X193468095Y-97082758D01*
X193468095Y-97082758D02*
X193515714Y-96987520D01*
X193515714Y-96987520D02*
X193610952Y-96892282D01*
X193610952Y-96892282D02*
X193753809Y-96844663D01*
X193753809Y-96844663D02*
X193849047Y-96844663D01*
X193849047Y-96844663D02*
X193991904Y-96892282D01*
X193991904Y-96892282D02*
X194039523Y-96939901D01*
X194468095Y-97844663D02*
X194468095Y-96844663D01*
X194468095Y-96844663D02*
X195039523Y-97844663D01*
X195039523Y-97844663D02*
X195039523Y-96844663D01*
X195944285Y-97177996D02*
X195944285Y-97844663D01*
X195706190Y-96797044D02*
X195468095Y-97511329D01*
X195468095Y-97511329D02*
X196087142Y-97511329D01*
X87970853Y-101374761D02*
X88018472Y-101231904D01*
X88018472Y-101231904D02*
X88066091Y-101184285D01*
X88066091Y-101184285D02*
X88161329Y-101136666D01*
X88161329Y-101136666D02*
X88304186Y-101136666D01*
X88304186Y-101136666D02*
X88399424Y-101184285D01*
X88399424Y-101184285D02*
X88447044Y-101231904D01*
X88447044Y-101231904D02*
X88494663Y-101327142D01*
X88494663Y-101327142D02*
X88494663Y-101708094D01*
X88494663Y-101708094D02*
X87494663Y-101708094D01*
X87494663Y-101708094D02*
X87494663Y-101374761D01*
X87494663Y-101374761D02*
X87542282Y-101279523D01*
X87542282Y-101279523D02*
X87589901Y-101231904D01*
X87589901Y-101231904D02*
X87685139Y-101184285D01*
X87685139Y-101184285D02*
X87780377Y-101184285D01*
X87780377Y-101184285D02*
X87875615Y-101231904D01*
X87875615Y-101231904D02*
X87923234Y-101279523D01*
X87923234Y-101279523D02*
X87970853Y-101374761D01*
X87970853Y-101374761D02*
X87970853Y-101708094D01*
X88494663Y-100184285D02*
X88494663Y-100755713D01*
X88494663Y-100469999D02*
X87494663Y-100469999D01*
X87494663Y-100469999D02*
X87637520Y-100565237D01*
X87637520Y-100565237D02*
X87732758Y-100660475D01*
X87732758Y-100660475D02*
X87780377Y-100755713D01*
X174884663Y-101698094D02*
X173884663Y-101698094D01*
X173884663Y-101698094D02*
X173884663Y-101459999D01*
X173884663Y-101459999D02*
X173932282Y-101317142D01*
X173932282Y-101317142D02*
X174027520Y-101221904D01*
X174027520Y-101221904D02*
X174122758Y-101174285D01*
X174122758Y-101174285D02*
X174313234Y-101126666D01*
X174313234Y-101126666D02*
X174456091Y-101126666D01*
X174456091Y-101126666D02*
X174646567Y-101174285D01*
X174646567Y-101174285D02*
X174741805Y-101221904D01*
X174741805Y-101221904D02*
X174837044Y-101317142D01*
X174837044Y-101317142D02*
X174884663Y-101459999D01*
X174884663Y-101459999D02*
X174884663Y-101698094D01*
X174884663Y-100174285D02*
X174884663Y-100745713D01*
X174884663Y-100459999D02*
X173884663Y-100459999D01*
X173884663Y-100459999D02*
X174027520Y-100555237D01*
X174027520Y-100555237D02*
X174122758Y-100650475D01*
X174122758Y-100650475D02*
X174170377Y-100745713D01*
X171054663Y-101711904D02*
X170054663Y-101711904D01*
X170530853Y-101711904D02*
X170530853Y-101140476D01*
X171054663Y-101140476D02*
X170054663Y-101140476D01*
X171054663Y-100140476D02*
X171054663Y-100711904D01*
X171054663Y-100426190D02*
X170054663Y-100426190D01*
X170054663Y-100426190D02*
X170197520Y-100521428D01*
X170197520Y-100521428D02*
X170292758Y-100616666D01*
X170292758Y-100616666D02*
X170340377Y-100711904D01*
M02*
