M48
; DRILL file {KiCad 8.0.4} date 2024-08-20T01:52:56-0400
; FORMAT={-:-/ absolute / metric / decimal}
; #@! TF.CreationDate,2024-08-20T01:52:56-04:00
; #@! TF.GenerationSoftware,Kicad,Pcbnew,8.0.4
; #@! TF.FileFunction,Plated,1,2,PTH
FMAT,2
METRIC
; #@! TA.AperFunction,Plated,PTH,ViaDrill
T1C0.600
%
G90
G05
T1
X89.33Y-96.89
X89.33Y-105.02
X91.87Y-96.88
X91.87Y-105.01
X94.41Y-96.88
X94.41Y-105.01
X100.75Y-96.88
X100.75Y-105.01
X104.57Y-96.88
X104.57Y-105.01
X109.66Y-96.88
X109.66Y-105.01
X114.73Y-96.88
X114.73Y-105.01
X120.38Y-96.88
X120.38Y-105.01
X159.18Y-96.88
X159.18Y-105.01
X164.25Y-96.88
X164.25Y-105.01
X180.77Y-96.88
X180.77Y-105.01
X185.85Y-96.88
X185.85Y-105.01
X208.71Y-96.88
X208.72Y-105.01
X211.25Y-96.88
X211.25Y-105.01
X213.79Y-96.88
X213.79Y-105.01
X216.33Y-96.89
X216.33Y-105.04
M30
