%TF.GenerationSoftware,KiCad,Pcbnew,8.0.4*%
%TF.CreationDate,2024-08-20T01:52:53-04:00*%
%TF.ProjectId,EISA Bridge,45495341-2042-4726-9964-67652e6b6963,1*%
%TF.SameCoordinates,Original*%
%TF.FileFunction,Copper,L1,Top*%
%TF.FilePolarity,Positive*%
%FSLAX46Y46*%
G04 Gerber Fmt 4.6, Leading zero omitted, Abs format (unit mm)*
G04 Created by KiCad (PCBNEW 8.0.4) date 2024-08-20 01:52:53*
%MOMM*%
%LPD*%
G01*
G04 APERTURE LIST*
G04 Aperture macros list*
%AMFreePoly0*
4,1,26,0.155291,0.585932,0.300000,0.525992,0.424264,0.430641,0.519615,0.306377,0.579555,0.161668,0.600000,0.006377,0.600000,-4.793623,0.579555,-4.948914,0.519615,-5.093623,0.424264,-5.217887,0.400000,-5.236506,0.400000,-11.043623,-0.400000,-11.043623,-0.400000,-5.236506,-0.424264,-5.217887,-0.519615,-5.093623,-0.579555,-4.948914,-0.600000,-4.793623,-0.600000,0.006377,-0.579555,0.161668,
-0.519615,0.306377,-0.424264,0.430641,-0.300000,0.525992,-0.155291,0.585932,0.000000,0.606377,0.155291,0.585932,0.155291,0.585932,$1*%
%AMFreePoly1*
4,1,22,0.068685,0.292031,0.169541,0.247499,0.247499,0.169541,0.292031,0.068685,0.300000,0.000000,0.300000,-6.001279,0.323607,-6.024886,0.380423,-6.136393,0.400000,-6.260000,0.400000,-10.740000,-0.400000,-10.740000,-0.400000,-6.260000,-0.380423,-6.136393,-0.323607,-6.024886,-0.300000,-6.001279,-0.300000,0.000000,-0.292031,0.068685,-0.247499,0.169541,-0.169541,0.247499,-0.068685,0.292031,
0.000000,0.300000,0.068685,0.292031,0.068685,0.292031,$1*%
G04 Aperture macros list end*
%TA.AperFunction,SMDPad,CuDef*%
%ADD10FreePoly0,0.000000*%
%TD*%
%TA.AperFunction,SMDPad,CuDef*%
%ADD11FreePoly1,0.000000*%
%TD*%
%TA.AperFunction,SMDPad,CuDef*%
%ADD12FreePoly0,180.000000*%
%TD*%
%TA.AperFunction,SMDPad,CuDef*%
%ADD13FreePoly1,180.000000*%
%TD*%
%TA.AperFunction,ViaPad*%
%ADD14C,1.000000*%
%TD*%
%TA.AperFunction,Conductor*%
%ADD15C,0.300000*%
%TD*%
%TA.AperFunction,Conductor*%
%ADD16C,1.200000*%
%TD*%
%TA.AperFunction,Conductor*%
%ADD17C,0.400000*%
%TD*%
G04 APERTURE END LIST*
D10*
%TO.P,CN1,B1,GND*%
%TO.N,GND*%
X88080000Y-107330000D03*
%TO.P,CN1,B2,RESET_DRV*%
%TO.N,/B2*%
X90620000Y-107330000D03*
%TO.P,CN1,B3,+5V*%
%TO.N,+5V*%
X93160000Y-107330000D03*
%TO.P,CN1,B4,IRQ_1*%
%TO.N,/B4*%
X95700000Y-107330000D03*
%TO.P,CN1,B5,-5V*%
%TO.N,-5V*%
X98240000Y-107330000D03*
%TO.P,CN1,B6,DRQ_2*%
%TO.N,/B6*%
X100780000Y-107330000D03*
%TO.P,CN1,B7,-12V*%
%TO.N,-12V*%
X103320000Y-107330000D03*
%TO.P,CN1,B8,Reserved\u002C_NC*%
%TO.N,/B8*%
X105860000Y-107330000D03*
%TO.P,CN1,B9,+12V*%
%TO.N,+12V*%
X108400000Y-107330000D03*
%TO.P,CN1,B10,GND*%
%TO.N,GND*%
X110940000Y-107330000D03*
%TO.P,CN1,B11,~{MEMW}*%
%TO.N,/B11*%
X113480000Y-107330000D03*
%TO.P,CN1,B12,~{MEMR}*%
%TO.N,/B12*%
X116020000Y-107330000D03*
%TO.P,CN1,B13,~{IOW}*%
%TO.N,/B13*%
X118560000Y-107330000D03*
%TO.P,CN1,B14,~{IOR}*%
%TO.N,/B14*%
X121100000Y-107330000D03*
%TO.P,CN1,B15,DACK_3*%
%TO.N,/B15*%
X123640000Y-107330000D03*
%TO.P,CN1,B16,DRQ_3*%
%TO.N,/B16*%
X126180000Y-107330000D03*
%TO.P,CN1,B17,DACK_1*%
%TO.N,/B17*%
X128720000Y-107330000D03*
%TO.P,CN1,B18,DRQ_1*%
%TO.N,/B18*%
X131260000Y-107330000D03*
%TO.P,CN1,B19,DACK_0*%
%TO.N,/B19*%
X133800000Y-107330000D03*
%TO.P,CN1,B20,CLK*%
%TO.N,/B20*%
X136340000Y-107330000D03*
%TO.P,CN1,B21,IRQ_7*%
%TO.N,/B21*%
X138880000Y-107330000D03*
%TO.P,CN1,B22,IRQ_6*%
%TO.N,/B22*%
X141420000Y-107330000D03*
%TO.P,CN1,B23,IRQ_5*%
%TO.N,/B23*%
X143960000Y-107330000D03*
%TO.P,CN1,B24,IRQ_4*%
%TO.N,/B24*%
X146500000Y-107330000D03*
%TO.P,CN1,B25,IRQ_3*%
%TO.N,/B25*%
X149040000Y-107330000D03*
%TO.P,CN1,B26,DACK_2*%
%TO.N,/B26*%
X151580000Y-107330000D03*
%TO.P,CN1,B27,T/C*%
%TO.N,/B27*%
X154120000Y-107330000D03*
%TO.P,CN1,B28,ALE*%
%TO.N,/B28*%
X156660000Y-107330000D03*
%TO.P,CN1,B29,+5V*%
%TO.N,+5V*%
X159200000Y-107330000D03*
%TO.P,CN1,B30,OSC*%
%TO.N,/B30*%
X161740000Y-107330000D03*
%TO.P,CN1,B31,GND*%
%TO.N,GND*%
X164280000Y-107330000D03*
%TO.P,CN1,D1,~{MEM_CS}*%
%TO.N,/D1*%
X174440000Y-107330000D03*
%TO.P,CN1,D2,~{I/O_CS}*%
%TO.N,/D2*%
X176980000Y-107330000D03*
%TO.P,CN1,D3,IRQ_10*%
%TO.N,/D3*%
X179520000Y-107330000D03*
%TO.P,CN1,D4,IRQ_11*%
%TO.N,/D4*%
X182060000Y-107330000D03*
%TO.P,CN1,D5,IRQ_12*%
%TO.N,/D5*%
X184600000Y-107330000D03*
%TO.P,CN1,D6,IRQ_13*%
%TO.N,/D6*%
X187140000Y-107330000D03*
%TO.P,CN1,D7,IRQ_14*%
%TO.N,/D7*%
X189680000Y-107330000D03*
%TO.P,CN1,D8,DACK_0*%
%TO.N,/D8*%
X192220000Y-107330000D03*
%TO.P,CN1,D9,DRQ_0*%
%TO.N,/D9*%
X194760000Y-107330000D03*
%TO.P,CN1,D10,DACK_5*%
%TO.N,/D10*%
X197300000Y-107330000D03*
%TO.P,CN1,D11,DRQ5*%
%TO.N,/D11*%
X199840000Y-107330000D03*
%TO.P,CN1,D12,DACK_6*%
%TO.N,/D12*%
X202380000Y-107330000D03*
%TO.P,CN1,D13,DRQ_6*%
%TO.N,/D13*%
X204920000Y-107330000D03*
%TO.P,CN1,D14,DACK_7*%
%TO.N,/D14*%
X207460000Y-107330000D03*
%TO.P,CN1,D15,DRQ_7*%
%TO.N,/D15*%
X210000000Y-107330000D03*
%TO.P,CN1,D16,+5V*%
%TO.N,+5V*%
X212540000Y-107330000D03*
%TO.P,CN1,D17,MASTER*%
%TO.N,/D17*%
X215080000Y-107330000D03*
%TO.P,CN1,D18,GND*%
%TO.N,GND*%
X217620000Y-107330000D03*
D11*
%TO.P,CN1,F1,GND*%
X89360000Y-107630000D03*
%TO.P,CN1,F2,+5V*%
%TO.N,+5V Alt*%
X91900000Y-107630000D03*
%TO.P,CN1,F3,+5V*%
%TO.N,+5V*%
X94440000Y-107630000D03*
%TO.P,CN1,F4,X\u002C_NC*%
%TO.N,/F4*%
X96980000Y-107630000D03*
%TO.P,CN1,F5,X\u002C_NC*%
%TO.N,/F5*%
X99520000Y-107630000D03*
%TO.P,CN1,F7,X\u002C_NC*%
%TO.N,/F7*%
X104600000Y-107630000D03*
%TO.P,CN1,F8,X\u002C_NC*%
%TO.N,/F8*%
X107140000Y-107630000D03*
%TO.P,CN1,F9,+12V*%
%TO.N,+12V*%
X109680000Y-107630000D03*
%TO.P,CN1,F10,M-IO*%
%TO.N,/F10*%
X112220000Y-107630000D03*
%TO.P,CN1,F11,LOCK*%
%TO.N,GND*%
X114760000Y-107630000D03*
%TO.P,CN1,F12,Reserved*%
%TO.N,/F12*%
X117300000Y-107630000D03*
%TO.P,CN1,F13,GND*%
%TO.N,GND*%
X119840000Y-107630000D03*
%TO.P,CN1,F14,Reserved*%
%TO.N,/F14*%
X122380000Y-107630000D03*
%TO.P,CN1,F15,BE_3*%
%TO.N,/F15*%
X124920000Y-107630000D03*
%TO.P,CN1,F17,BE_2*%
%TO.N,/F17*%
X130000000Y-107630000D03*
%TO.P,CN1,F18,BE_0*%
%TO.N,/F18*%
X132540000Y-107630000D03*
%TO.P,CN1,F19,GND*%
%TO.N,GND*%
X135080000Y-107630000D03*
%TO.P,CN1,F20,+5V*%
%TO.N,+5V*%
X137620000Y-107630000D03*
%TO.P,CN1,F21,LA_29*%
%TO.N,/F21*%
X140160000Y-107630000D03*
%TO.P,CN1,F22,GND*%
%TO.N,GND*%
X142700000Y-107630000D03*
%TO.P,CN1,F23,LA_26*%
%TO.N,/F23*%
X145240000Y-107630000D03*
%TO.P,CN1,F24,LA_24*%
%TO.N,/F24*%
X147780000Y-107630000D03*
%TO.P,CN1,F26,LA_16*%
%TO.N,/F26*%
X152860000Y-107630000D03*
%TO.P,CN1,F27,LA_14*%
%TO.N,/F27*%
X155400000Y-107630000D03*
%TO.P,CN1,F28,+5V*%
%TO.N,+5V*%
X157940000Y-107630000D03*
%TO.P,CN1,F29,+5V*%
X160480000Y-107630000D03*
%TO.P,CN1,F30,GND*%
%TO.N,GND*%
X163020000Y-107630000D03*
%TO.P,CN1,F31,LA_10*%
%TO.N,/F31*%
X165560000Y-107630000D03*
%TO.P,CN1,H1,LA_8*%
%TO.N,/H1*%
X170640000Y-107630000D03*
%TO.P,CN1,H2,LA_6*%
%TO.N,/H2*%
X173180000Y-107630000D03*
%TO.P,CN1,H3,LA_5*%
%TO.N,/H3*%
X175720000Y-107630000D03*
%TO.P,CN1,H4,+5V*%
%TO.N,/H4*%
X178260000Y-107630000D03*
%TO.P,CN1,H5,LA_2*%
%TO.N,GND*%
X180800000Y-107630000D03*
%TO.P,CN1,H7,DATA_16*%
%TO.N,/H7*%
X185880000Y-107630000D03*
%TO.P,CN1,H8,DATA_18*%
%TO.N,/H8*%
X188420000Y-107630000D03*
%TO.P,CN1,H9,GND*%
%TO.N,GND*%
X190960000Y-107630000D03*
%TO.P,CN1,H10,DATA_21*%
%TO.N,/H10*%
X193500000Y-107630000D03*
%TO.P,CN1,H11,DATA_23*%
%TO.N,/H11*%
X196040000Y-107630000D03*
%TO.P,CN1,H12,DATA_24*%
%TO.N,/H12*%
X198580000Y-107630000D03*
%TO.P,CN1,H13,GND*%
%TO.N,GND*%
X201120000Y-107630000D03*
%TO.P,CN1,H14,DATA_27*%
%TO.N,/H14*%
X203660000Y-107630000D03*
%TO.P,CN1,H16,DATA_29*%
%TO.N,GND*%
X208740000Y-107630000D03*
%TO.P,CN1,H17,+5V*%
%TO.N,+5V*%
X211280000Y-107630000D03*
%TO.P,CN1,H18,+5V*%
%TO.N,+5V Alt*%
X213820000Y-107630000D03*
%TO.P,CN1,H19,MAC_KN*%
%TO.N,GND*%
X216360000Y-107630000D03*
%TD*%
D12*
%TO.P,CN2,B1,GND*%
%TO.N,GND*%
X88110000Y-94580000D03*
%TO.P,CN2,B2,RESET_DRV*%
%TO.N,/B2*%
X90650000Y-94580000D03*
%TO.P,CN2,B3,+5V*%
%TO.N,+5V*%
X93190000Y-94580000D03*
%TO.P,CN2,B4,IRQ_1*%
%TO.N,/B4*%
X95730000Y-94580000D03*
%TO.P,CN2,B5,-5V*%
%TO.N,-5V*%
X98270000Y-94580000D03*
%TO.P,CN2,B6,DRQ_2*%
%TO.N,/B6*%
X100810000Y-94580000D03*
%TO.P,CN2,B7,-12V*%
%TO.N,-12V*%
X103350000Y-94580000D03*
%TO.P,CN2,B8,Reserved\u002C_NC*%
%TO.N,/B8*%
X105890000Y-94580000D03*
%TO.P,CN2,B9,+12V*%
%TO.N,+12V*%
X108430000Y-94580000D03*
%TO.P,CN2,B10,GND*%
%TO.N,GND*%
X110970000Y-94580000D03*
%TO.P,CN2,B11,~{MEMW}*%
%TO.N,/B11*%
X113510000Y-94580000D03*
%TO.P,CN2,B12,~{MEMR}*%
%TO.N,/B12*%
X116050000Y-94580000D03*
%TO.P,CN2,B13,~{IOW}*%
%TO.N,/B13*%
X118590000Y-94580000D03*
%TO.P,CN2,B14,~{IOR}*%
%TO.N,/B14*%
X121130000Y-94580000D03*
%TO.P,CN2,B15,DACK_3*%
%TO.N,/B15*%
X123670000Y-94580000D03*
%TO.P,CN2,B16,DRQ_3*%
%TO.N,/B16*%
X126210000Y-94580000D03*
%TO.P,CN2,B17,DACK_1*%
%TO.N,/B17*%
X128750000Y-94580000D03*
%TO.P,CN2,B18,DRQ_1*%
%TO.N,/B18*%
X131290000Y-94580000D03*
%TO.P,CN2,B19,DACK_0*%
%TO.N,/B19*%
X133830000Y-94580000D03*
%TO.P,CN2,B20,CLK*%
%TO.N,/B20*%
X136370000Y-94580000D03*
%TO.P,CN2,B21,IRQ_7*%
%TO.N,/B21*%
X138910000Y-94580000D03*
%TO.P,CN2,B22,IRQ_6*%
%TO.N,/B22*%
X141450000Y-94580000D03*
%TO.P,CN2,B23,IRQ_5*%
%TO.N,/B23*%
X143990000Y-94580000D03*
%TO.P,CN2,B24,IRQ_4*%
%TO.N,/B24*%
X146530000Y-94580000D03*
%TO.P,CN2,B25,IRQ_3*%
%TO.N,/B25*%
X149070000Y-94580000D03*
%TO.P,CN2,B26,DACK_2*%
%TO.N,/B26*%
X151610000Y-94580000D03*
%TO.P,CN2,B27,T/C*%
%TO.N,/B27*%
X154150000Y-94580000D03*
%TO.P,CN2,B28,ALE*%
%TO.N,/B28*%
X156690000Y-94580000D03*
%TO.P,CN2,B29,+5V*%
%TO.N,+5V*%
X159230000Y-94580000D03*
%TO.P,CN2,B30,OSC*%
%TO.N,/B30*%
X161770000Y-94580000D03*
%TO.P,CN2,B31,GND*%
%TO.N,GND*%
X164310000Y-94580000D03*
%TO.P,CN2,D1,~{MEM_CS}*%
%TO.N,/D1*%
X174470000Y-94580000D03*
%TO.P,CN2,D2,~{I/O_CS}*%
%TO.N,/D2*%
X177010000Y-94580000D03*
%TO.P,CN2,D3,IRQ_10*%
%TO.N,/D3*%
X179550000Y-94580000D03*
%TO.P,CN2,D4,IRQ_11*%
%TO.N,/D4*%
X182090000Y-94580000D03*
%TO.P,CN2,D5,IRQ_12*%
%TO.N,/D5*%
X184630000Y-94580000D03*
%TO.P,CN2,D6,IRQ_13*%
%TO.N,/D6*%
X187170000Y-94580000D03*
%TO.P,CN2,D7,IRQ_14*%
%TO.N,/D7*%
X189710000Y-94580000D03*
%TO.P,CN2,D8,DACK_0*%
%TO.N,/D8*%
X192250000Y-94580000D03*
%TO.P,CN2,D9,DRQ_0*%
%TO.N,/D9*%
X194790000Y-94580000D03*
%TO.P,CN2,D10,DACK_5*%
%TO.N,/D10*%
X197330000Y-94580000D03*
%TO.P,CN2,D11,DRQ5*%
%TO.N,/D11*%
X199870000Y-94580000D03*
%TO.P,CN2,D12,DACK_6*%
%TO.N,/D12*%
X202410000Y-94580000D03*
%TO.P,CN2,D13,DRQ_6*%
%TO.N,/D13*%
X204950000Y-94580000D03*
%TO.P,CN2,D14,DACK_7*%
%TO.N,/D14*%
X207490000Y-94580000D03*
%TO.P,CN2,D15,DRQ_7*%
%TO.N,/D15*%
X210030000Y-94580000D03*
%TO.P,CN2,D16,+5V*%
%TO.N,+5V*%
X212570000Y-94580000D03*
%TO.P,CN2,D17,MASTER*%
%TO.N,/D17*%
X215110000Y-94580000D03*
%TO.P,CN2,D18,GND*%
%TO.N,GND*%
X217650000Y-94580000D03*
D13*
%TO.P,CN2,F1,GND*%
X89390000Y-94280000D03*
%TO.P,CN2,F2,+5V*%
%TO.N,+5V Alt*%
X91930000Y-94280000D03*
%TO.P,CN2,F3,+5V*%
%TO.N,+5V*%
X94470000Y-94280000D03*
%TO.P,CN2,F4,X\u002C_NC*%
%TO.N,/F4*%
X97010000Y-94280000D03*
%TO.P,CN2,F5*%
%TO.N,N/C*%
X99550000Y-94280000D03*
%TO.P,CN2,F7,X\u002C_NC*%
%TO.N,/F7*%
X104630000Y-94280000D03*
%TO.P,CN2,F8,X\u002C_NC*%
%TO.N,/F8*%
X107170000Y-94280000D03*
%TO.P,CN2,F9,+12V*%
%TO.N,+12V*%
X109710000Y-94280000D03*
%TO.P,CN2,F10,M-IO*%
%TO.N,/F10*%
X112250000Y-94280000D03*
%TO.P,CN2,F11,LOCK*%
%TO.N,GND*%
X114790000Y-94280000D03*
%TO.P,CN2,F12,Reserved*%
%TO.N,/F12*%
X117330000Y-94280000D03*
%TO.P,CN2,F13,GND*%
%TO.N,GND*%
X119870000Y-94280000D03*
%TO.P,CN2,F14*%
%TO.N,N/C*%
X122410000Y-94280000D03*
%TO.P,CN2,F15,BE_3*%
%TO.N,/F15*%
X124950000Y-94280000D03*
%TO.P,CN2,F17,BE_2*%
%TO.N,/F17*%
X130030000Y-94280000D03*
%TO.P,CN2,F18,BE_0*%
%TO.N,/F18*%
X132570000Y-94280000D03*
%TO.P,CN2,F19,GND*%
%TO.N,GND*%
X135110000Y-94280000D03*
%TO.P,CN2,F20,+5V*%
%TO.N,+5V*%
X137650000Y-94280000D03*
%TO.P,CN2,F21,LA_29*%
%TO.N,/F21*%
X140190000Y-94280000D03*
%TO.P,CN2,F22,GND*%
%TO.N,GND*%
X142730000Y-94280000D03*
%TO.P,CN2,F23,LA_26*%
%TO.N,/F23*%
X145270000Y-94280000D03*
%TO.P,CN2,F24,LA_24*%
%TO.N,/F24*%
X147810000Y-94280000D03*
%TO.P,CN2,F26,LA_16*%
%TO.N,/F26*%
X152890000Y-94280000D03*
%TO.P,CN2,F27*%
%TO.N,N/C*%
X155430000Y-94280000D03*
%TO.P,CN2,F28,+5V*%
%TO.N,+5V*%
X157970000Y-94280000D03*
%TO.P,CN2,F29,+5V*%
X160510000Y-94280000D03*
%TO.P,CN2,F30,GND*%
%TO.N,GND*%
X163050000Y-94280000D03*
%TO.P,CN2,F31,LA_10*%
%TO.N,/F31*%
X165590000Y-94280000D03*
%TO.P,CN2,H1,LA_8*%
%TO.N,/H1*%
X170670000Y-94280000D03*
%TO.P,CN2,H2,LA_6*%
%TO.N,/H2*%
X173210000Y-94280000D03*
%TO.P,CN2,H3,LA_5*%
%TO.N,/H3*%
X175750000Y-94280000D03*
%TO.P,CN2,H4*%
%TO.N,N/C*%
X178290000Y-94280000D03*
%TO.P,CN2,H5,LA_2*%
%TO.N,GND*%
X180830000Y-94280000D03*
%TO.P,CN2,H7,DATA_16*%
%TO.N,/H7*%
X185910000Y-94280000D03*
%TO.P,CN2,H8,DATA_18*%
%TO.N,/H8*%
X188450000Y-94280000D03*
%TO.P,CN2,H9,GND*%
%TO.N,GND*%
X190990000Y-94280000D03*
%TO.P,CN2,H10,DATA_21*%
%TO.N,/H10*%
X193530000Y-94280000D03*
%TO.P,CN2,H11,DATA_23*%
%TO.N,/H11*%
X196070000Y-94280000D03*
%TO.P,CN2,H12,DATA_24*%
%TO.N,/H12*%
X198610000Y-94280000D03*
%TO.P,CN2,H13,GND*%
%TO.N,GND*%
X201150000Y-94280000D03*
%TO.P,CN2,H14*%
%TO.N,N/C*%
X203690000Y-94280000D03*
%TO.P,CN2,H16,DATA_29*%
%TO.N,GND*%
X208770000Y-94280000D03*
%TO.P,CN2,H17,+5V*%
%TO.N,+5V*%
X211310000Y-94280000D03*
%TO.P,CN2,H18,+5V*%
%TO.N,+5V Alt*%
X213850000Y-94280000D03*
%TO.P,CN2,H19,MAC_KN*%
%TO.N,GND*%
X216390000Y-94280000D03*
%TD*%
D14*
%TO.N,/E13*%
X120380000Y-96880000D03*
X120380000Y-105010000D03*
%TO.N,/F7*%
X104570000Y-105010000D03*
X104570000Y-96880000D03*
%TO.N,GND*%
X208720000Y-105010000D03*
X100750000Y-105010000D03*
X208710000Y-96880000D03*
X114730000Y-96880000D03*
X216330000Y-105040000D03*
X164250000Y-96880000D03*
X89330000Y-96890000D03*
X180770000Y-96880000D03*
X216330000Y-96890000D03*
X100750000Y-96880000D03*
X180770000Y-105010000D03*
X164250000Y-105010000D03*
X114730000Y-105010000D03*
X89330000Y-105020000D03*
%TO.N,/G7*%
X185850000Y-96880000D03*
X185850000Y-105010000D03*
%TO.N,+12V*%
X109660000Y-105010000D03*
X109660000Y-96880000D03*
%TO.N,+5V*%
X94410000Y-105010000D03*
X159180000Y-96880000D03*
X211250000Y-96880000D03*
X94410000Y-96880000D03*
X211250000Y-105010000D03*
X159180000Y-105010000D03*
%TO.N,+5V Alt*%
X213790000Y-96880000D03*
X213790000Y-105010000D03*
X91870000Y-105010000D03*
X91870000Y-96880000D03*
%TD*%
D15*
%TO.N,/F15*%
X124920000Y-94300000D02*
X124920000Y-107620000D01*
%TO.N,/B15*%
X123640000Y-94600000D02*
X123640000Y-107320000D01*
%TO.N,/B28*%
X156660000Y-94600000D02*
X156660000Y-107320000D01*
%TO.N,/F24*%
X147780000Y-94300000D02*
X147780000Y-107620000D01*
%TO.N,/B14*%
X122160000Y-96120000D02*
X122160000Y-105740000D01*
X122160000Y-105740000D02*
X121100000Y-106800000D01*
X121100000Y-106800000D02*
X121100000Y-107320000D01*
X121100000Y-94600000D02*
X121100000Y-95060000D01*
X121100000Y-95060000D02*
X122160000Y-96120000D01*
%TO.N,/B2*%
X90620000Y-94600000D02*
X90620000Y-107320000D01*
%TO.N,/B24*%
X146500000Y-94600000D02*
X146500000Y-107320000D01*
%TO.N,/B16*%
X126180000Y-94600000D02*
X126180000Y-107320000D01*
%TO.N,/F31*%
X165560000Y-107620000D02*
X165560000Y-94300000D01*
%TO.N,/B25*%
X149040000Y-94600000D02*
X149040000Y-107320000D01*
%TO.N,/B11*%
X113480000Y-107320000D02*
X113480000Y-94600000D01*
D16*
%TO.N,/E13*%
X120410000Y-96880000D02*
X120410000Y-105010000D01*
D15*
%TO.N,/B30*%
X161740000Y-94600000D02*
X161740000Y-107320000D01*
%TO.N,/F14*%
X122380000Y-94300000D02*
X122380000Y-95410000D01*
X122920000Y-105930000D02*
X122380000Y-106470000D01*
X122920000Y-95950000D02*
X122920000Y-105930000D01*
X122380000Y-95410000D02*
X122920000Y-95950000D01*
X122380000Y-106470000D02*
X122380000Y-107620000D01*
%TO.N,/F23*%
X145240000Y-94300000D02*
X145240000Y-107620000D01*
%TO.N,/F12*%
X117300000Y-107620000D02*
X117300000Y-94300000D01*
%TO.N,/F8*%
X107140000Y-94300000D02*
X107140000Y-107620000D01*
%TO.N,/B8*%
X105860000Y-94600000D02*
X105860000Y-107320000D01*
%TO.N,/B19*%
X133800000Y-94600000D02*
X133800000Y-107320000D01*
%TO.N,/F17*%
X130000000Y-94300000D02*
X130000000Y-107620000D01*
%TO.N,/F27*%
X155400000Y-94300000D02*
X155400000Y-107620000D01*
%TO.N,/B22*%
X141420000Y-94600000D02*
X141420000Y-107320000D01*
%TO.N,/F18*%
X132540000Y-94300000D02*
X132540000Y-107620000D01*
%TO.N,/F10*%
X112220000Y-94300000D02*
X112220000Y-107620000D01*
%TO.N,/F5*%
X99520000Y-94300000D02*
X99520000Y-107620000D01*
%TO.N,/B12*%
X116020000Y-94600000D02*
X116020000Y-107320000D01*
%TO.N,/B23*%
X143960000Y-94600000D02*
X143960000Y-107320000D01*
%TO.N,/B13*%
X118560000Y-94600000D02*
X118560000Y-107320000D01*
%TO.N,/B6*%
X100780000Y-95090000D02*
X102000000Y-96310000D01*
X100780000Y-94600000D02*
X100780000Y-95090000D01*
X100780000Y-106820000D02*
X100780000Y-107320000D01*
X102000000Y-105600000D02*
X100780000Y-106820000D01*
X102000000Y-96310000D02*
X102000000Y-105600000D01*
%TO.N,/B20*%
X136340000Y-94600000D02*
X136340000Y-107320000D01*
%TO.N,/B18*%
X131260000Y-94600000D02*
X131260000Y-107320000D01*
%TO.N,/B27*%
X154120000Y-94600000D02*
X154120000Y-107320000D01*
%TO.N,/F7*%
X104600000Y-107620000D02*
X104600000Y-105010000D01*
X104600000Y-94300000D02*
X104600000Y-96880000D01*
D16*
X104600000Y-96880000D02*
X104600000Y-105010000D01*
D15*
%TO.N,/B4*%
X95700000Y-107320000D02*
X95700000Y-94600000D01*
%TO.N,/F21*%
X140160000Y-94300000D02*
X140160000Y-107620000D01*
%TO.N,/B26*%
X151580000Y-94600000D02*
X151580000Y-107320000D01*
%TO.N,/B17*%
X128720000Y-94600000D02*
X128720000Y-107320000D01*
%TO.N,/F26*%
X152860000Y-94300000D02*
X152860000Y-107620000D01*
%TO.N,/F4*%
X96980000Y-94300000D02*
X96980000Y-107620000D01*
%TO.N,/B21*%
X138880000Y-94600000D02*
X138880000Y-107320000D01*
D17*
%TO.N,GND*%
X163020000Y-94300000D02*
X163020000Y-107620000D01*
X190960000Y-94300000D02*
X190960000Y-107610000D01*
D16*
X164280000Y-96880000D02*
X164280000Y-105010000D01*
D17*
X216360000Y-107610000D02*
X216370000Y-107620000D01*
X208740000Y-94300000D02*
X208740000Y-96880000D01*
X135080000Y-94300000D02*
X135080000Y-107620000D01*
X88080000Y-106300000D02*
X89360000Y-105020000D01*
X121560000Y-96530000D02*
X121560000Y-105340000D01*
D16*
X89360000Y-96890000D02*
X89360000Y-105020000D01*
X100780000Y-105010000D02*
X100780000Y-96880000D01*
D15*
X180800000Y-94300000D02*
X180800000Y-96880000D01*
D17*
X88080000Y-94600000D02*
X88080000Y-95610000D01*
X208750000Y-105010000D02*
X208750000Y-107620000D01*
D16*
X216360000Y-105040000D02*
X216360000Y-96890000D01*
D17*
X216360000Y-105040000D02*
X216360000Y-107610000D01*
D15*
X208750000Y-105010000D02*
X208740000Y-105020000D01*
D17*
X164280000Y-105010000D02*
X164280000Y-107320000D01*
X119840000Y-94300000D02*
X119840000Y-94810000D01*
D16*
X208740000Y-105010000D02*
X208740000Y-96860000D01*
D17*
X216360000Y-96890000D02*
X216360000Y-94300000D01*
X164280000Y-94600000D02*
X164280000Y-96880000D01*
X88080000Y-107320000D02*
X88080000Y-106300000D01*
D15*
X180800000Y-105010000D02*
X180800000Y-107620000D01*
D17*
X110940000Y-94600000D02*
X110940000Y-107320000D01*
X216360000Y-105040000D02*
X217630000Y-106310000D01*
X216360000Y-96890000D02*
X217620000Y-95630000D01*
X190960000Y-107610000D02*
X190970000Y-107620000D01*
D16*
X180800000Y-96880000D02*
X180800000Y-105010000D01*
D17*
X201120000Y-94300000D02*
X201120000Y-107610000D01*
D16*
X114760000Y-96880000D02*
X114760000Y-105010000D01*
D17*
X88080000Y-95610000D02*
X89360000Y-96890000D01*
D15*
X208740000Y-96880000D02*
X208740000Y-105000000D01*
D17*
X114760000Y-94300000D02*
X114760000Y-96880000D01*
X217620000Y-95630000D02*
X217620000Y-94600000D01*
X89360000Y-94300000D02*
X89360000Y-107620000D01*
X142700000Y-94300000D02*
X142700000Y-107620000D01*
X119840000Y-94810000D02*
X121560000Y-96530000D01*
X119840000Y-107060000D02*
X119840000Y-107620000D01*
X121560000Y-105340000D02*
X119840000Y-107060000D01*
X201120000Y-107610000D02*
X201130000Y-107620000D01*
X114760000Y-107620000D02*
X114760000Y-105010000D01*
X217630000Y-106310000D02*
X217630000Y-107320000D01*
D15*
X208740000Y-105000000D02*
X208750000Y-105010000D01*
D16*
%TO.N,/G7*%
X185880000Y-96880000D02*
X185880000Y-105010000D01*
D15*
%TO.N,/H1*%
X170640000Y-94300000D02*
X170640000Y-107620000D01*
%TO.N,/H4*%
X178260000Y-94300000D02*
X178260000Y-107620000D01*
%TO.N,/H8*%
X188420000Y-107610000D02*
X188430000Y-107620000D01*
X188420000Y-94300000D02*
X188420000Y-107610000D01*
%TO.N,/H11*%
X196040000Y-94300000D02*
X196040000Y-107610000D01*
X196040000Y-107610000D02*
X196050000Y-107620000D01*
%TO.N,/H7*%
X184600000Y-105490000D02*
X184600000Y-96380000D01*
X184600000Y-96380000D02*
X185880000Y-95100000D01*
X185880000Y-107620000D02*
X185880000Y-106770000D01*
X185880000Y-106770000D02*
X184600000Y-105490000D01*
X185880000Y-95100000D02*
X185880000Y-94300000D01*
%TO.N,/H14*%
X203660000Y-107610000D02*
X203670000Y-107620000D01*
X203660000Y-94300000D02*
X203660000Y-107610000D01*
%TO.N,/H3*%
X175720000Y-94300000D02*
X175720000Y-107620000D01*
%TO.N,/H2*%
X173180000Y-94300000D02*
X173180000Y-107620000D01*
%TO.N,/H10*%
X193500000Y-107610000D02*
X193510000Y-107620000D01*
X193500000Y-94300000D02*
X193500000Y-107610000D01*
%TO.N,/H12*%
X198590000Y-107620000D02*
X198590000Y-94310000D01*
X198590000Y-94310000D02*
X198580000Y-94300000D01*
D17*
%TO.N,+12V*%
X109680000Y-105000000D02*
X109690000Y-105010000D01*
X108400000Y-94600000D02*
X108400000Y-107320000D01*
X109680000Y-105020000D02*
X109680000Y-107620000D01*
X109690000Y-105010000D02*
X109680000Y-105020000D01*
X109680000Y-94300000D02*
X109680000Y-96870000D01*
X109680000Y-96870000D02*
X109690000Y-96880000D01*
X109690000Y-96880000D02*
X109680000Y-96890000D01*
D16*
X109680000Y-96890000D02*
X109680000Y-105000000D01*
D17*
%TO.N,+5V*%
X137620000Y-94300000D02*
X137620000Y-107620000D01*
X211280000Y-107610000D02*
X211290000Y-107620000D01*
X212550000Y-107320000D02*
X212550000Y-106280000D01*
D16*
X211280000Y-96880000D02*
X211280000Y-105010000D01*
D17*
X212540000Y-95620000D02*
X211280000Y-96880000D01*
X93160000Y-107320000D02*
X93160000Y-106290000D01*
X93160000Y-94600000D02*
X93160000Y-95600000D01*
X157940000Y-94300000D02*
X157940000Y-107620000D01*
X160480000Y-94300000D02*
X160480000Y-107620000D01*
X211280000Y-105010000D02*
X211280000Y-107610000D01*
X211280000Y-94300000D02*
X211280000Y-96880000D01*
D16*
X159210000Y-96880000D02*
X159210000Y-105010000D01*
D17*
X93160000Y-106290000D02*
X94440000Y-105010000D01*
X93160000Y-95600000D02*
X94440000Y-96880000D01*
X94440000Y-94300000D02*
X94440000Y-107620000D01*
D16*
X94440000Y-96890000D02*
X94440000Y-105010000D01*
D17*
X212540000Y-94600000D02*
X212540000Y-95620000D01*
X212550000Y-106280000D02*
X211280000Y-105010000D01*
X159200000Y-94600000D02*
X159200000Y-107320000D01*
%TO.N,-5V*%
X98240000Y-107320000D02*
X98240000Y-94600000D01*
%TO.N,-12V*%
X103320000Y-94600000D02*
X103320000Y-107320000D01*
D15*
%TO.N,/D17*%
X215080000Y-107310000D02*
X215090000Y-107320000D01*
X215080000Y-94600000D02*
X215080000Y-107320000D01*
%TO.N,/D12*%
X202380000Y-107310000D02*
X202390000Y-107320000D01*
X202380000Y-94600000D02*
X202380000Y-107310000D01*
%TO.N,/D10*%
X197300000Y-107310000D02*
X197310000Y-107320000D01*
X197300000Y-94600000D02*
X197300000Y-107310000D01*
%TO.N,/D13*%
X204920000Y-94600000D02*
X204920000Y-107310000D01*
X204920000Y-107310000D02*
X204930000Y-107320000D01*
%TO.N,/D1*%
X174440000Y-107320000D02*
X174440000Y-94600000D01*
%TO.N,/D9*%
X194760000Y-107310000D02*
X194770000Y-107320000D01*
X194760000Y-94600000D02*
X194760000Y-107310000D01*
%TO.N,/D15*%
X210000000Y-107310000D02*
X210010000Y-107320000D01*
X210000000Y-94600000D02*
X210000000Y-107310000D01*
%TO.N,/D14*%
X207460000Y-94600000D02*
X207460000Y-107310000D01*
X207460000Y-107310000D02*
X207470000Y-107320000D01*
X207460000Y-107320000D02*
X207470000Y-107320000D01*
%TO.N,/D5*%
X184600000Y-95270000D02*
X183710000Y-96160000D01*
X184600000Y-94600000D02*
X184600000Y-95270000D01*
X184600000Y-106650000D02*
X184600000Y-107320000D01*
X183710000Y-105760000D02*
X184600000Y-106650000D01*
X183710000Y-96160000D02*
X183710000Y-105760000D01*
%TO.N,/D2*%
X176980000Y-107320000D02*
X176980000Y-94600000D01*
%TO.N,/D11*%
X199840000Y-107310000D02*
X199850000Y-107320000D01*
X199840000Y-94600000D02*
X199840000Y-107310000D01*
%TO.N,/D8*%
X192220000Y-94600000D02*
X192220000Y-107310000D01*
X192220000Y-107310000D02*
X192230000Y-107320000D01*
%TO.N,/D6*%
X187140000Y-107310000D02*
X187150000Y-107320000D01*
X187140000Y-94600000D02*
X187140000Y-107310000D01*
%TO.N,/D7*%
X189680000Y-107310000D02*
X189690000Y-107320000D01*
X189680000Y-94600000D02*
X189680000Y-107310000D01*
%TO.N,/D4*%
X182060000Y-94600000D02*
X182060000Y-107310000D01*
X182060000Y-107310000D02*
X182070000Y-107320000D01*
%TO.N,/D3*%
X179520000Y-94600000D02*
X179520000Y-107320000D01*
D17*
%TO.N,+5V Alt*%
X91900000Y-96870000D02*
X91910000Y-96880000D01*
X91910000Y-96880000D02*
X91900000Y-96890000D01*
D16*
X213820000Y-96880000D02*
X213820000Y-105010000D01*
D17*
X213820000Y-94300000D02*
X213820000Y-96880000D01*
X91900000Y-94300000D02*
X91900000Y-96870000D01*
X213820000Y-107610000D02*
X213830000Y-107620000D01*
D16*
X91900000Y-96880000D02*
X91900000Y-105010000D01*
D17*
X91900000Y-105010000D02*
X91900000Y-107620000D01*
X213820000Y-105010000D02*
X213820000Y-107610000D01*
%TD*%
M02*
